<svg width="20" height="21" viewBox="0 0 20 21" fill="none" xmlns="http://www.w3.org/2000/svg">
<path d="M9.99999 0.638672C4.49999 0.638672 0 5.1467 0 10.6989C0 15.719 3.65999 19.8857 8.43999 20.6387V13.6106H5.89999V10.6989H8.43999V8.48004C8.43999 5.95996 9.92999 4.57442 12.22 4.57442C13.31 4.57442 14.45 4.76518 14.45 4.76518V7.2451H13.19C11.95 7.2451 11.56 8.01819 11.56 8.81136V10.6989H14.34L13.89 13.6106H11.56V20.6387C13.9164 20.265 16.0622 19.0579 17.6099 17.2351C19.1576 15.4124 20.0053 13.0941 20 10.6989C20 5.1467 15.5 0.638672 9.99999 0.638672Z" fill="white"/>
</svg>
