<svg width="31" height="33" viewBox="0 0 31 33" fill="none" xmlns="http://www.w3.org/2000/svg">
<path d="M16.5284 3C22.3484 3 27.0284 7.71 27.0284 13.5C27.0284 17.7 24.5834 21.285 21.0284 22.965V30H10.5284V25.5H9.02844C7.36344 25.5 6.02844 24.165 6.02844 22.5V18H3.77844C3.14844 18 2.78844 17.25 3.14844 16.785L6.02844 12.99C6.31344 7.425 10.8734 3 16.5284 3ZM12.5084 9.585H15.4034C15.4184 9.135 15.5534 8.79 15.8234 8.55C16.0934 8.325 16.4234 8.205 16.8134 8.205C17.2784 8.205 17.6684 8.355 17.9384 8.625C18.2084 8.91 18.3284 9.3 18.3284 9.75C18.3284 10.23 18.2234 10.635 17.9834 10.98C17.7734 11.325 17.4584 11.625 17.0684 11.865C16.3034 12.375 15.7784 12.825 15.4934 13.23C15.1934 13.62 15.0284 14.25 15.0284 15H18.0284C18.0284 14.535 18.0884 14.16 18.2234 13.89C18.3584 13.605 18.6134 13.35 18.9884 13.11C19.6634 12.75 20.2184 12.315 20.6534 11.715C21.0884 11.115 21.3134 10.5 21.3134 9.75C21.3134 8.61 20.9084 7.695 20.0984 7.02C19.3034 6.345 18.2084 6 16.8134 6C15.5084 6 14.4584 6.3 13.6484 6.885C12.8684 7.5 12.4784 8.355 12.4934 9.54L12.5084 9.585ZM15.0284 19.5H18.0284V16.5H15.0284V19.5ZM16.5284 0C9.64344 0 3.94344 5.13 3.11844 11.85L0.778442 15H0.733442L0.703442 15.045C-0.121558 16.185 -0.226559 17.685 0.418442 18.93C0.958441 19.965 1.91844 20.685 3.02844 20.91V22.5C3.02844 25.275 4.94844 27.63 7.52844 28.305V33H24.0284V24.75C27.7784 22.245 30.0284 18.09 30.0284 13.5C30.0284 6.045 23.9684 0 16.5284 0Z" fill="#26205C"/>
</svg>
