<svg width="30" height="28" viewBox="0 0 30 28" fill="none" xmlns="http://www.w3.org/2000/svg">
<path d="M17.505 18.8962L26.505 27.8962L29.67 24.6562L20.67 15.6562L17.505 18.8962ZM23.085 11.0963C22.5 11.0963 21.87 11.0212 21.375 10.8112L4.29 27.8213L1.125 24.6562L12.24 13.5562L9.585 10.8863L8.505 11.9362L6.33 9.82125V14.1112L5.28 15.1613L0 9.82125L1.05 8.77125H5.265L3.165 6.65625L8.505 1.31625C10.26 -0.43875 13.08 -0.43875 14.835 1.31625L11.67 4.55625L13.785 6.65625L12.72 7.72125L15.405 10.3913L18.135 7.57125C17.925 7.07625 17.835 6.44625 17.835 5.89125C17.835 2.93625 20.175 0.61125 23.085 0.61125C23.97 0.61125 24.75 0.82125 25.455 1.24125L21.45 5.24625L23.7 7.49625L27.705 3.49125C28.125 4.19625 28.335 4.94625 28.335 5.89125C28.335 8.77125 26.01 11.0963 23.085 11.0963Z" fill="#26205C"/>
</svg>
