<svg width="36" height="21" viewBox="0 0 36 21" fill="none" xmlns="http://www.w3.org/2000/svg">
<path d="M18 0C16.6076 0 15.2723 0.553124 14.2877 1.53769C13.3031 2.52226 12.75 3.85761 12.75 5.25C12.75 6.64239 13.3031 7.97774 14.2877 8.96231C15.2723 9.94688 16.6076 10.5 18 10.5C19.3924 10.5 20.7277 9.94688 21.7123 8.96231C22.6969 7.97774 23.25 6.64239 23.25 5.25C23.25 3.85761 22.6969 2.52226 21.7123 1.53769C20.7277 0.553124 19.3924 0 18 0ZM18 3C18.5967 3 19.169 3.23705 19.591 3.65901C20.0129 4.08097 20.25 4.65326 20.25 5.25C20.25 5.84674 20.0129 6.41903 19.591 6.84099C19.169 7.26295 18.5967 7.5 18 7.5C17.4033 7.5 16.831 7.26295 16.409 6.84099C15.9871 6.41903 15.75 5.84674 15.75 5.25C15.75 4.65326 15.9871 4.08097 16.409 3.65901C16.831 3.23705 17.4033 3 18 3ZM8.25 4.5C7.25544 4.5 6.30161 4.89509 5.59835 5.59835C4.89509 6.30161 4.5 7.25544 4.5 8.25C4.5 9.66 5.295 10.875 6.435 11.52C6.975 11.82 7.59 12 8.25 12C8.91 12 9.525 11.82 10.065 11.52C10.62 11.205 11.085 10.755 11.43 10.215C10.335 8.79 9.75 7.05 9.75 5.25C9.75 5.115 9.75 4.965 9.75 4.83C9.3 4.62 8.79 4.5 8.25 4.5ZM27.75 4.5C27.21 4.5 26.7 4.62 26.25 4.83C26.25 4.965 26.25 5.115 26.25 5.25C26.25 7.05 25.665 8.79 24.57 10.215C24.75 10.5 24.945 10.725 25.17 10.95C25.41 11.175 25.65 11.37 25.935 11.52C26.475 11.82 27.09 12 27.75 12C28.41 12 29.025 11.82 29.565 11.52C30.705 10.875 31.5 9.66 31.5 8.25C31.5 7.25544 31.1049 6.30161 30.4016 5.59835C29.6984 4.89509 28.7446 4.5 27.75 4.5ZM18 13.5C14.49 13.5 7.5 15.255 7.5 18.75V21H28.5V18.75C28.5 15.255 21.51 13.5 18 13.5ZM7.065 14.325C4.17 14.67 0 16.14 0 18.75V21H4.5V18.105C4.5 16.59 5.535 15.33 7.065 14.325ZM28.935 14.325C30.465 15.33 31.5 16.59 31.5 18.105V21H36V18.75C36 16.14 31.83 14.67 28.935 14.325ZM18 16.5C20.295 16.5 22.86 17.25 24.345 18H11.655C13.14 17.25 15.705 16.5 18 16.5Z" fill="#26205C"/>
</svg>
