<svg width="20" height="21" viewBox="0 0 20 21" fill="none" xmlns="http://www.w3.org/2000/svg">
<path d="M8.72721 9.36588C9.06477 9.02831 9.52261 8.83867 10 8.83867C10.4774 8.83867 10.9352 9.02831 11.2728 9.36588C11.6104 9.70345 11.8 10.1613 11.8 10.6387C11.8 11.1161 11.6104 11.5739 11.2728 11.9115C10.9352 12.249 10.4774 12.4387 10 12.4387C9.52261 12.4387 9.06477 12.249 8.72721 11.9115C8.38964 11.5739 8.2 11.1161 8.2 10.6387C8.2 10.1613 8.38964 9.70345 8.72721 9.36588Z" fill="white"/>
<path fill-rule="evenodd" clip-rule="evenodd" d="M5.83265 6.47132C6.23773 6.06624 6.78713 5.83867 7.36 5.83867H12.64C13.834 5.83867 14.8 6.80467 14.8 7.99867V13.2787C14.8 13.8515 14.5724 14.4009 14.1674 14.806C13.7623 15.2111 13.2129 15.4387 12.64 15.4387H7.36C6.166 15.4387 5.2 14.4727 5.2 13.2787V7.99867C5.2 7.4258 5.42757 6.8764 5.83265 6.47132ZM13.6803 6.95834C13.5397 6.81769 13.3489 6.73867 13.15 6.73867C12.9511 6.73867 12.7603 6.81769 12.6197 6.95834C12.479 7.09899 12.4 7.28976 12.4 7.48867C12.4 7.68758 12.479 7.87835 12.6197 8.019C12.7603 8.15965 12.9511 8.23867 13.15 8.23867C13.3489 8.23867 13.5397 8.15965 13.6803 8.019C13.821 7.87835 13.9 7.68758 13.9 7.48867C13.9 7.28976 13.821 7.09899 13.6803 6.95834ZM12.1213 8.51735C11.5587 7.95474 10.7956 7.63867 10 7.63867C9.20435 7.63867 8.44129 7.95474 7.87868 8.51735C7.31607 9.07996 7 9.84302 7 10.6387C7 11.4343 7.31607 12.1974 7.87868 12.76C8.44129 13.3226 9.20435 13.6387 10 13.6387C10.7956 13.6387 11.5587 13.3226 12.1213 12.76C12.6839 12.1974 13 11.4343 13 10.6387C13 9.84302 12.6839 9.07996 12.1213 8.51735Z" fill="white"/>
<path fill-rule="evenodd" clip-rule="evenodd" d="M10 20.6387C15.5228 20.6387 20 16.1615 20 10.6387C20 5.11582 15.5228 0.638672 10 0.638672C4.47715 0.638672 0 5.11582 0 10.6387C0 16.1615 4.47715 20.6387 10 20.6387ZM16 8.11867C16 6.19867 14.44 4.63867 12.52 4.63867H7.48C6.55705 4.63867 5.6719 5.00531 5.01927 5.65794C4.36664 6.31057 4 7.19572 4 8.11867V13.1587C4 15.0787 5.56 16.6387 7.48 16.6387H12.52C13.443 16.6387 14.3281 16.272 14.9807 15.6194C15.6334 14.9668 16 14.0816 16 13.1587V8.11867Z" fill="white"/>
</svg>
