<svg width="20" height="21" viewBox="0 0 20 21" fill="none" xmlns="http://www.w3.org/2000/svg">
<path fill-rule="evenodd" clip-rule="evenodd" d="M10 20.6387C15.5229 20.6387 20 16.1616 20 10.6387C20 5.11572 15.5229 0.638672 10 0.638672C4.47705 0.638672 0 5.11572 0 10.6387C0 16.1616 4.47705 20.6387 10 20.6387ZM16 16.6387V11.8599C16 11.0806 15.6904 10.3335 15.1392 9.78174C14.5874 9.23047 13.8403 8.9209 13.061 8.9209C12.2944 8.9209 11.4014 9.38965 10.9692 10.0928V9.09277H8.4541V16.6387H10.9692V12.1938C10.9692 11.4995 11.5283 10.9316 12.2222 10.9316C12.5571 10.9316 12.8779 11.0645 13.1152 11.3013C13.3516 11.5376 13.4844 11.8594 13.4844 12.1938V16.6387H16ZM5.52344 7.67676C5.92529 7.67676 6.31055 7.51758 6.59424 7.23291C6.87891 6.94922 7.03809 6.56396 7.03809 6.16211C7.03809 5.32422 6.36182 4.63867 5.52344 4.63867C5.12012 4.63867 4.73242 4.79932 4.44629 5.08496C4.16064 5.37109 4 5.75879 4 6.16211C4 7.00049 4.68555 7.67676 5.52344 7.67676ZM6.77686 16.6387V9.09277H4.2793V16.6387H6.77686Z" fill="white"/>
</svg>
