<svg width="27" height="25" viewBox="0 0 27 25" fill="none" xmlns="http://www.w3.org/2000/svg">
<path fill-rule="evenodd" clip-rule="evenodd" d="M17.8226 7.50687C19.5987 9.3643 20.6897 11.8823 20.6897 14.6552C20.6897 20.3685 16.0581 25 10.3448 25C4.63154 25 0 20.3685 0 14.6552C0 8.94188 4.63154 4.31034 10.3448 4.31034C12.8538 4.31034 15.1542 5.20357 16.9454 6.68936C19.6413 4.15404 22.6637 1.96592 25.9449 0.188592L26.2931 0L25.4536 0.59467C22.6307 2.59424 20.0713 4.91729 17.8226 7.50687ZM9.48276 15.9483L9.92273 15.2443C11.6625 12.4606 13.7071 9.8966 16.0105 7.59548C14.4596 6.34919 12.4893 5.60345 10.3448 5.60345C5.3457 5.60345 1.2931 9.65604 1.2931 14.6552C1.2931 19.6543 5.3457 23.7069 10.3448 23.7069C15.344 23.7069 19.3966 19.6543 19.3966 14.6552C19.3966 12.2794 18.4813 10.1174 16.9841 8.50254C14.644 11.3677 12.6723 14.5346 11.1282 17.9318L9.48276 21.5517L9.37781 21.2579C8.02785 17.478 5.85537 14.045 3.01724 11.2069L4.71405 12.225C6.44986 13.2665 8.05138 14.5169 9.48276 15.9483Z" fill="#0A27F6"/>
</svg>
