<svg width="31" height="29" viewBox="0 0 31 29" fill="none" xmlns="http://www.w3.org/2000/svg">
<path fill-rule="evenodd" clip-rule="evenodd" d="M20.6743 8.70797C22.7345 10.8626 24 13.7835 24 17C24 23.6274 18.6274 29 12 29C5.37258 29 0 23.6274 0 17C0 10.3726 5.37258 5 12 5C14.9105 5 17.5789 6.03614 19.6566 7.75966C22.7839 4.81868 26.2899 2.28047 30.0961 0.218766L30.5 0L29.5261 0.689818C26.2516 3.00931 23.2827 5.70406 20.6743 8.70797ZM11 18.5L11.5104 17.6834C13.5285 14.4544 15.9003 11.4801 18.5722 8.81075C16.7731 7.36506 14.4876 6.5 12 6.5C6.20101 6.5 1.5 11.201 1.5 17C1.5 22.799 6.20101 27.5 12 27.5C17.799 27.5 22.5 22.799 22.5 17C22.5 14.2441 21.4383 11.7362 19.7015 9.86294C16.987 13.1866 14.6999 16.8602 12.9087 20.8009L11 25L10.8783 24.6591C9.31231 20.2745 6.79223 16.2922 3.5 13L5.4683 14.181C7.48183 15.3891 9.3396 16.8396 11 18.5Z" fill="#0A27F6"/>
</svg>
