<svg width="20" height="21" viewBox="0 0 20 21" fill="none" xmlns="http://www.w3.org/2000/svg">
<path fill-rule="evenodd" clip-rule="evenodd" d="M10 20.6387C15.5228 20.6387 20 16.1615 20 10.6387C20 5.11582 15.5228 0.638672 10 0.638672C4.47715 0.638672 0 5.11582 0 10.6387C0 16.1615 4.47715 20.6387 10 20.6387ZM14.5889 7.18169C15.0822 7.1186 15.5583 6.98666 16 6.7859C15.6673 7.28494 15.2543 7.72089 14.7725 8.06506C14.7782 8.17404 14.7782 8.2773 14.7782 8.38628C14.7782 11.6387 12.2945 15.3901 7.77438 15.3901C6.38623 15.3901 5.08987 14.9828 4 14.283C4.19503 14.306 4.39006 14.3174 4.58509 14.3174C5.74379 14.3174 6.80497 13.9274 7.64245 13.262C6.55832 13.2448 5.65774 12.522 5.34799 11.5526C5.49713 11.5813 5.65201 11.5985 5.80688 11.5985C6.03059 11.5985 6.24857 11.5698 6.45507 11.5125C5.33078 11.2888 4.48184 10.2907 4.48184 9.09756V9.08035C4.81453 9.25244 5.19312 9.36716 5.60038 9.36716C4.93499 8.93695 4.50478 8.17978 4.50478 7.3251C4.50478 6.87768 4.62524 6.4532 4.83748 6.09183C6.0478 7.57749 7.86616 8.55837 9.90822 8.66162C9.86807 8.4838 9.84512 8.2945 9.84512 8.09948C9.84512 6.74001 10.9465 5.63867 12.2945 5.63867C13.0172 5.63867 13.6539 5.92548 14.1071 6.41879C14.6635 6.30406 15.1912 6.1033 15.6673 5.81649C15.4837 6.39584 15.0937 6.87768 14.5889 7.18169Z" fill="white"/>
</svg>
