<svg width="41" height="46" viewBox="0 0 41 46" fill="none" xmlns="http://www.w3.org/2000/svg">
<path d="M24.1578 18.75V15H33.4493V18.75H24.1578ZM21.9836 8.925L27.2426 3.61875L29.8628 6.2625L24.6038 11.5688L21.9836 8.925ZM14.8663 0H18.5829V9.375H14.8663V0ZM3.5865 27.4875L8.84547 22.1812L11.4657 24.825L6.2067 30.1312L3.5865 27.4875ZM3.5865 6.2625L6.2067 3.61875L11.4657 8.925L8.84547 11.5688L3.5865 6.2625ZM9.29146 18.75H0V15H9.29146V18.75Z" fill="#0A27F6"/>
<path d="M25.806 24.7318L26.8463 24.4851L34.5889 24.6893C35.8049 24.544 36.9825 25.2603 37.4119 26.4172L37.5946 26.8088L40.5377 36.6599C40.7494 37.3498 40.7441 38.0858 40.4136 38.7535C40.1573 39.4231 39.6451 39.9371 38.9974 40.2391L28.6336 45.0718C27.8955 45.416 27.0912 45.461 26.3482 45.1655L13.1316 40.3801L13.7849 38.2415C13.9708 37.6964 14.4449 37.2186 15.0012 36.9958L15.4381 36.7921L22.0294 35.314L14.6539 19.4972C14.2813 18.6982 14.2414 17.7838 14.543 16.9554C14.8445 16.1269 15.4628 15.4522 16.2618 15.0796C17.0608 14.707 17.9751 14.6671 18.8036 14.9686C19.6321 15.2701 20.3068 15.8884 20.6794 16.6875L24.6762 25.2587L25.806 24.7318Z" fill="#0A27F6"/>
</svg>
