<svg width="119" height="31" viewBox="0 0 119 31" fill="none" xmlns="http://www.w3.org/2000/svg">
<path d="M84.2102 0.361328H79.7369L84.2102 2.9929H86.3158L84.2102 0.361328Z" fill="white"/>
<path d="M21.0526 30.0928H13.081L5.86981 21.9403V30.0928H0V4.04558H5.86981V12.7298L13.081 4.04558H21.0526L9.73683 17.0692L21.0526 30.0928Z" fill="white"/>
<path d="M117.275 29.2123C118.04 28.4463 118.422 27.532 118.422 26.4695V16.8328C118.422 15.7703 118.04 14.8561 117.275 14.09C116.511 13.3241 115.599 12.9411 114.54 12.9411H101.784V9.60526H118.422V4.04558H99.7505C98.69 4.04558 97.7779 4.42858 97.0142 5.19457C96.2497 5.96057 95.8683 6.87483 95.8683 7.93733V14.609C95.8683 15.6715 96.2497 16.5857 97.0142 17.3517C97.7779 18.1177 98.69 18.5007 99.7505 18.5007H112.506V24.8016H95.8683V30.3613H114.54C115.599 30.3613 116.511 29.9782 117.275 29.2123Z" fill="white"/>
<path d="M71.2569 30.176H65.7111V17.2035L59.4258 30.176H54.9891L48.7038 17.2035V30.176H43.1581V4.23091H48.7038L57.1336 21.8366L65.7111 4.23091H71.2569V30.176Z" fill="white"/>
<path d="M93.8215 30.176H77.184C76.1734 30.176 75.2985 29.8177 74.5591 29.1011C73.8443 28.3598 73.4869 27.4826 73.4869 26.4695V7.93735C73.4869 6.92426 73.8443 6.05942 74.5591 5.34284C75.2985 4.60155 76.1734 4.23091 77.184 4.23091H93.8215V9.41995H79.0326V13.1264H93.8215V18.3154H79.0326V24.9869H93.8215V30.176Z" fill="white"/>
<path d="M18.9781 10.6687L19.5401 11.0771L20.0676 10.3511L19.5055 9.94271L18.9781 10.6687Z" fill="white"/>
<path d="M35.9079 7.63498C35.943 7.58672 35.9272 7.53836 35.8605 7.4899L35.3602 7.12641L35.1792 7.37549L35.6795 7.73898C35.7462 7.78745 35.7971 7.78756 35.8322 7.7393L35.9079 7.63498Z" fill="white"/>
<path d="M38.4245 23.0726L38.6523 23.547L38.9524 23.134L38.4245 23.0726Z" fill="white"/>
<path d="M33.0516 27.8466L32.957 28.3644L33.4425 28.2066L33.0516 27.8466Z" fill="white"/>
<path d="M18.0592 19.4576L17.3985 19.6723L17.6758 20.5258L18.3365 20.3111L18.0592 19.4576Z" fill="white"/>
<path d="M28.3455 17.2034C28.3455 17.6395 28.6989 17.9929 29.135 17.9929C29.5709 17.9929 29.9244 17.6395 29.9244 17.2034C29.9244 16.7674 29.5709 16.414 29.135 16.414C28.6989 16.414 28.3455 16.7674 28.3455 17.2034Z" fill="white"/>
<path fill-rule="evenodd" clip-rule="evenodd" d="M16.3153 17.335C16.3153 24.3838 22.0303 30.098 29.0803 30.098C36.1302 30.098 41.8453 24.3838 41.8453 17.335C41.8453 10.286 36.1302 4.5718 29.0803 4.5718C22.0303 4.5718 16.3153 10.286 16.3153 17.335ZM17.9127 13.7189L17.7154 13.6554L17.4869 14.3512L18.1546 14.5659L18.3831 13.8701L18.1555 13.7969L18.294 13.5537L18.4205 13.5943C18.52 13.6264 18.5806 13.6675 18.6022 13.7178C18.6239 13.7681 18.6172 13.8467 18.5822 13.9534L18.3652 14.6143C18.3302 14.721 18.2886 14.7879 18.2406 14.8149C18.1926 14.8419 18.1197 14.8397 18.0219 14.8082L17.4579 14.6268C17.3584 14.5949 17.2977 14.5542 17.2757 14.5047C17.2538 14.4551 17.2603 14.377 17.2953 14.2702L17.5124 13.6095C17.5474 13.5027 17.5887 13.4353 17.6361 13.4072C17.6835 13.3791 17.757 13.381 17.8565 13.413L17.9602 13.4464L17.9127 13.7189ZM19.3723 11.2669L18.8925 10.922C18.8065 10.8601 18.7611 10.8025 18.7563 10.7493C18.7516 10.696 18.7827 10.6239 18.8493 10.5331L19.3605 9.83692C19.4271 9.74611 19.4869 9.69466 19.5395 9.68264C19.5922 9.67063 19.6615 9.69555 19.7476 9.7574L20.2274 10.1023C20.312 10.1632 20.3568 10.2209 20.3617 10.2753C20.3666 10.3298 20.3362 10.4018 20.2706 10.4912L19.7594 11.1874C19.6927 11.2782 19.6327 11.3294 19.5793 11.3409C19.5259 11.3524 19.457 11.3277 19.3723 11.2669ZM22.3655 8.48224L22.187 8.61063L21.5258 7.71008L21.7043 7.5817L22.542 7.79589L22.5929 6.94288L22.7715 6.81449L23.4326 7.71505L23.2261 7.86354L22.7712 7.24402L22.7398 8.04731L22.6967 8.07824L21.9216 7.87763L22.3655 8.48224ZM26.3991 6.81775L26.1891 6.88524L25.8414 5.82657L26.0514 5.75907L26.7812 6.21894L27.0959 5.42322L27.3059 5.35573L27.6535 6.4144L27.4107 6.49247L27.1716 5.76416L26.8908 6.51853L26.8402 6.53478L26.1656 6.10696L26.3991 6.81775ZM31.9739 6.78173L30.8129 6.40847L31.1605 5.34979L32.3088 5.71899L32.2472 5.90669L31.362 5.62207L31.2863 5.85233L31.8023 6.01823L31.7423 6.20093L31.2264 6.03503L31.1409 6.29532L32.0387 6.58401L31.9739 6.78173ZM35.0142 7.87151L34.7947 7.71373L35.4559 6.81318L36.2756 7.40251C36.4176 7.5046 36.4459 7.61383 36.3604 7.73022L36.2041 7.94311C36.1198 8.05808 36.0065 8.06452 35.8645 7.96243L35.7398 7.87272L35.9221 8.52426L35.6037 8.29533L35.4729 7.68091L35.2643 7.53087L35.0142 7.87151ZM38.9664 10.8092L39.1342 10.6885L38.6996 10.0967L38.1317 10.505L38.5662 11.0968L38.7599 10.9576L38.8772 11.2116L38.7696 11.2889C38.6851 11.3497 38.6158 11.374 38.5619 11.3618C38.508 11.3497 38.4477 11.2981 38.381 11.2072L37.9684 10.6452C37.9016 10.5543 37.8714 10.4818 37.8775 10.4275C37.8837 10.3732 37.9284 10.3161 38.0116 10.2563L38.4913 9.91143C38.5759 9.85055 38.645 9.82587 38.6983 9.8374C38.7517 9.84893 38.8117 9.90006 38.8784 9.99087L39.2911 10.553C39.3578 10.6438 39.3887 10.7164 39.3837 10.7709C39.3788 10.8255 39.3341 10.8831 39.2494 10.9439L39.1612 11.0074L38.9664 10.8092ZM40.2265 15.057L39.8493 13.9082L40.9191 13.5642L41.2922 14.7005L41.1026 14.7614L40.8149 13.8855L40.5822 13.9603L40.7499 14.4709L40.5653 14.5302L40.3976 14.0197L40.1346 14.1043L40.4263 14.9927L40.2265 15.057ZM41.0022 19.2055L40.6438 20.2968L39.574 19.9528L39.6594 19.6925L40.5295 19.9722L40.8023 19.1413L41.0022 19.2055ZM39.1022 24.0165L38.9412 24.2358L38.4235 23.0471L38.5783 22.8364L39.887 22.9477L39.7056 23.1947L39.4227 23.1637L38.985 23.7598L39.1022 24.0165ZM36.5568 27.1242L36.3545 27.2696L35.6933 26.3691L35.8461 26.2592L37.0577 26.3022L36.6185 25.704L36.8185 25.5601L37.4797 26.4607L37.327 26.5705L36.1113 26.5175L36.5568 27.1242ZM33.027 28.8687L32.7666 28.9524L33.0538 27.6896L33.3042 27.6092L34.2968 28.4604L34.0034 28.5548L33.7929 28.3651L33.0847 28.5928L33.027 28.8687ZM29.5453 28.8691V28.6638H28.806V29.3585H29.5453V29.1217L29.8219 29.177V29.3085C29.8219 29.4121 29.8011 29.4818 29.7594 29.5178C29.7177 29.5538 29.6402 29.5717 29.5267 29.5717H28.8246C28.7111 29.5717 28.634 29.5533 28.5933 29.5164C28.5524 29.4796 28.5321 29.4103 28.5321 29.3085V28.7217C28.5321 28.6182 28.5524 28.5484 28.5933 28.5125C28.634 28.4765 28.7111 28.4585 28.8246 28.4585H29.5267C29.6402 28.4585 29.7177 28.4765 29.7594 28.5125C29.8011 28.5484 29.8219 28.6182 29.8219 28.7217V28.8296L29.5453 28.8691ZM25.308 28.7833L25.0475 28.6996L25.3951 27.6409L25.6556 27.7246L25.308 28.7833ZM21.5584 26.5747L21.3561 26.4293L22.0173 25.5288L22.1701 25.6386L22.5032 26.7921L22.9424 26.1939L23.1425 26.3378L22.4813 27.2384L22.3286 27.1285L22.0038 25.9679L21.5584 26.5747ZM18.7598 23.4972L18.63 23.3205L19.5401 22.6662L19.6698 22.843L19.4534 23.6718L20.3154 23.7222L20.4451 23.8989L19.535 24.5532L19.385 24.3489L20.0111 23.8987L19.1993 23.8676L19.168 23.825L19.3707 23.058L18.7598 23.4972ZM17.3733 19.3991L17.9373 19.2177C18.0384 19.1852 18.1122 19.1827 18.1586 19.2102C18.2049 19.2378 18.2456 19.305 18.2806 19.4118L18.5493 20.2301C18.5844 20.3369 18.5914 20.4149 18.5703 20.4642C18.5492 20.5134 18.488 20.5543 18.3868 20.5868L17.8228 20.7681C17.7234 20.8001 17.6499 20.8021 17.6024 20.7739C17.555 20.7459 17.514 20.6793 17.4795 20.5741L17.2107 19.7557C17.1757 19.6489 17.1692 19.5708 17.1911 19.5213C17.2131 19.4718 17.2738 19.4311 17.3733 19.3991ZM30.0202 8.78232C30.0202 9.21837 29.663 9.57176 29.2224 9.57176C28.7818 9.57176 28.4246 9.21837 28.4246 8.78232C28.4246 8.34631 28.7818 7.99285 29.2224 7.99285C29.663 7.99285 30.0202 8.34631 30.0202 8.78232ZM30.0202 26.4194C30.0202 26.8554 29.663 27.2089 29.2224 27.2089C28.7818 27.2089 28.4246 26.8554 28.4246 26.4194C28.4246 25.9834 28.7818 25.63 29.2224 25.63C29.663 25.63 30.0202 25.9834 30.0202 26.4194ZM20.5703 17.2997C20.5703 17.7357 20.2131 18.0892 19.7724 18.0892C19.3319 18.0892 18.9747 17.7357 18.9747 17.2997C18.9747 16.8637 19.3319 16.5102 19.7724 16.5102C20.2131 16.5102 20.5703 16.8637 20.5703 17.2997ZM38.6386 17.3108C38.6386 17.7468 38.2814 18.1003 37.8408 18.1003C37.4002 18.1003 37.043 17.7468 37.043 17.3108C37.043 16.8748 37.4002 16.5214 37.8408 16.5214C38.2814 16.5214 38.6386 16.8748 38.6386 17.3108ZM24.3045 24.5309C23.6683 24.8554 23.1911 25.0988 22.9617 25.0988C24.4226 23.9623 27.0329 21.9347 29.3202 21.9347C31.7288 21.9347 33.5727 23.6162 35.0168 24.933C35.0782 24.989 35.1389 25.0443 35.1989 25.0988C34.8857 25.0988 34.3633 24.8069 33.7 24.4361C32.5465 23.7914 30.9669 22.9084 29.3202 22.9084C27.4856 22.9084 25.577 23.8819 24.3045 24.5309ZM29.3202 12.472C27.0329 12.472 24.4226 10.4444 22.9617 9.3078C23.1911 9.3078 23.6682 9.55119 24.3045 9.87579C25.577 10.5248 27.4856 11.4984 29.3202 11.4984C30.9669 11.4984 32.5465 10.6154 33.7 9.97063C34.3633 9.59982 34.8857 9.3078 35.1989 9.3078C35.1393 9.362 35.079 9.417 35.0179 9.47264L35.0168 9.47369C33.5727 10.7905 31.7288 12.472 29.3202 12.472ZM21.724 12.5552C21.3686 12.0522 21.1022 11.6749 21.1022 11.4233C21.3906 11.9187 21.8062 12.4088 22.2429 12.9237C23.2189 14.0746 24.2998 15.3493 24.2998 17.083C24.2998 19.2911 22.9505 21.0667 21.8498 22.5151C21.5773 22.8738 21.32 23.2123 21.1022 23.5325C21.1022 23.1889 21.4219 22.6159 21.8278 21.8881C22.5336 20.6226 23.5004 18.8895 23.5004 17.083C23.5004 15.0701 22.4345 13.5612 21.724 12.5552ZM36.3568 12.0863C36.6145 11.7607 36.8557 11.456 37.0585 11.1756C37.0585 11.4072 36.8046 11.835 36.4662 12.4054C35.7895 13.5462 34.7744 15.2574 34.7744 17.1092C34.7744 18.7712 35.6951 20.4632 36.3674 21.6988C36.754 22.4093 37.0585 22.9689 37.0585 23.2849C36.9965 23.2117 36.933 23.1368 36.8681 23.0604C35.6171 21.5871 33.8608 19.5186 33.8608 17.1092C33.8608 15.2394 35.2587 13.4735 36.3568 12.0863ZM30.5999 21.0734L30.4438 21.1507H30.2878L30.0537 20.9959L29.8976 20.6864L29.8196 20.4542V20.2219L29.7416 19.835L29.6635 19.3705L29.5854 18.8288L29.5074 18.5966L29.3514 18.287H29.1563L28.9612 18.3643L28.8051 18.5966L28.649 18.7514L28.3369 19.5254L27.8687 20.7638L27.7906 20.9959L27.7126 21.0734H27.4005L27.2444 20.9959L27.0103 20.8411L26.8542 20.7638L26.3079 20.2219V19.9897L26.464 19.835L26.5421 19.6801L27.0103 19.2158L27.4005 18.9062L28.1808 18.1322V17.9774L28.1027 17.8226L27.7906 17.6678L27.6345 17.7451L27.4005 17.8226L27.0884 17.9774L26.6981 18.1322L26.0739 18.3643L25.3715 18.5966H25.1374L25.0594 18.4418L24.9813 18.2096L24.8253 17.5904V17.2808L24.9033 16.9712L25.0594 16.8164L25.2155 16.739H25.5276L25.8397 16.8164L26.386 16.8938L27.0103 16.9712L27.5566 17.0486H27.8687L28.0248 16.8938L27.9467 16.739L27.7906 16.5842L27.5566 16.4294L26.1519 15.7328L25.7617 15.5006L25.4495 15.2684L25.2935 15.1136V14.9588L25.6837 14.417L26.386 13.8752L26.7761 14.2622L27.0103 14.5718L28.3369 16.352H28.571L28.7271 16.2746L28.8051 16.1198V15.8876L28.7271 15.7328L28.2588 14.2622L28.1808 13.8752V13.5656L28.2588 13.4108L28.7271 13.256H29.5074L29.8196 13.3334L29.8976 13.4882V14.3396L29.8196 14.5718L29.5854 15.8102V15.965L29.6635 16.1972L29.8196 16.2746H29.9756L30.1317 16.1972L31.9265 14.2622H32.2387L32.5509 14.5718L32.6288 14.7266L32.7849 14.8814L32.863 15.1136L33.0191 15.4232L32.941 15.578L32.7849 15.6554L32.6288 15.8102L32.3948 15.965L30.5999 16.9712L30.4438 17.126L30.3658 17.2808L30.4438 17.3582L30.5999 17.4355L33.1751 17.513L33.4092 17.5904L33.4873 17.7451V17.9774L33.3312 18.5966L33.1751 18.9062L33.0191 19.1384L32.7849 19.2931L30.5999 18.0547L30.4438 17.9774L30.2878 18.0547L30.2098 18.1322V18.4418L31.5364 20.2219L31.6144 20.4542L31.3022 20.7638L31.0682 20.9185L30.5999 21.0734Z" fill="white"/>
</svg>
