<svg width="170" height="43" viewBox="0 0 170 43" fill="none" xmlns="http://www.w3.org/2000/svg">
<path d="M120.888 0H114.466L120.888 3.77192H123.911L120.888 0Z" fill="#26205C"/>
<path d="M30.2221 42.6152H18.7784L8.4264 30.9298V42.6152H0V5.28076H8.4264V17.7281L18.7784 5.28076H30.2221L13.9777 23.9479L30.2221 42.6152Z" fill="#26205C"/>
<path d="M168.353 41.3531C169.452 40.2552 170 38.9447 170 37.4218V23.6091C170 22.0862 169.452 20.7758 168.353 19.6777C167.257 18.58 165.947 18.031 164.427 18.031H146.115V13.2496H170V5.28076H143.197C141.674 5.28076 140.365 5.82972 139.269 6.92765C138.171 8.02558 137.624 9.33601 137.624 10.8589V20.4216C137.624 21.9445 138.171 23.2549 139.269 24.3528C140.365 25.4508 141.674 25.9997 143.197 25.9997H161.507V35.0311H137.624V43H164.427C165.947 43 167.257 42.4509 168.353 41.3531Z" fill="#26205C"/>
<path d="M102.293 42.7344H94.3315V24.1404L85.3086 42.7344H78.9396L69.9167 24.1404V42.7344H61.9555V5.54639H69.9167L82.0181 30.7812L94.3315 5.54639H102.293V42.7344Z" fill="#26205C"/>
<path d="M134.685 42.7344H110.801C109.351 42.7344 108.095 42.2208 107.033 41.1937C106.007 40.1312 105.494 38.8739 105.494 37.4218V10.859C105.494 9.40686 106.007 8.16726 107.033 7.14017C108.095 6.07766 109.351 5.54639 110.801 5.54639H134.685V12.984H113.455V18.2966H134.685V25.7341H113.455V35.2967H134.685V42.7344Z" fill="#26205C"/>
<path d="M27.244 14.7739L28.0508 15.3593L28.8081 14.3187L28.0012 13.7333L27.244 14.7739Z" fill="#26205C"/>
<path d="M51.5475 10.4256C51.5979 10.3564 51.5752 10.2871 51.4795 10.2176L50.7613 9.69661L50.5014 10.0536L51.2196 10.5746C51.3154 10.6441 51.3885 10.6443 51.4388 10.5751L51.5475 10.4256Z" fill="#26205C"/>
<path d="M55.1602 32.5528L55.4872 33.2327L55.918 32.6408L55.1602 32.5528Z" fill="#26205C"/>
<path d="M47.4472 39.3956L47.3114 40.1378L48.0083 39.9116L47.4472 39.3956Z" fill="#26205C"/>
<path d="M25.9249 27.3713L24.9765 27.679L25.3745 28.9024L26.323 28.5946L25.9249 27.3713Z" fill="#26205C"/>
<path d="M40.6914 24.1403C40.6914 24.7653 41.1987 25.2719 41.8247 25.2719C42.4505 25.2719 42.9579 24.7653 42.9579 24.1403C42.9579 23.5153 42.4505 23.0088 41.8247 23.0088C41.1987 23.0088 40.6914 23.5153 40.6914 24.1403Z" fill="#26205C"/>
<path fill-rule="evenodd" clip-rule="evenodd" d="M23.4215 24.3289C23.4215 34.4323 31.6256 42.6226 41.7462 42.6226C51.8666 42.6226 60.0709 34.4323 60.0709 24.3289C60.0709 14.2254 51.8666 6.03502 41.7462 6.03502C31.6256 6.03502 23.4215 14.2254 23.4215 24.3289ZM25.7146 19.1458L25.4314 19.0548L25.1034 20.0521L26.0619 20.3599L26.3899 19.3625L26.0632 19.2576L26.262 18.909L26.4436 18.9672C26.5864 19.0132 26.6734 19.0722 26.7044 19.1443C26.7356 19.2164 26.726 19.329 26.6757 19.4819L26.3642 20.4292C26.314 20.5822 26.2542 20.6781 26.1853 20.7168C26.1164 20.7555 26.0118 20.7523 25.8714 20.7072L25.0617 20.4471C24.9189 20.4014 24.8318 20.3431 24.8002 20.2721C24.7687 20.201 24.7781 20.0891 24.8283 19.936L25.14 18.989C25.1902 18.8359 25.2495 18.7393 25.3175 18.6991C25.3856 18.6588 25.4911 18.6615 25.6339 18.7074L25.7828 18.7552L25.7146 19.1458ZM27.8099 15.6313L27.1212 15.137C26.9977 15.0482 26.9325 14.9657 26.9256 14.8894C26.9189 14.813 26.9635 14.7097 27.0591 14.5795L27.793 13.5817C27.8886 13.4515 27.9744 13.3778 28.05 13.3605C28.1256 13.3433 28.2251 13.379 28.3487 13.4677L29.0375 13.9621C29.1589 14.0494 29.2232 14.132 29.2303 14.21C29.2373 14.2882 29.1937 14.3913 29.0995 14.5195L28.3656 15.5174C28.2699 15.6475 28.1838 15.7209 28.1071 15.7374C28.0304 15.7539 27.9315 15.7185 27.8099 15.6313ZM32.1068 11.64L31.8506 11.824L30.9014 10.5332L31.1576 10.3492L32.3602 10.6562L32.4333 9.43355L32.6896 9.24953L33.6387 10.5403L33.3422 10.7532L32.6892 9.86518L32.6441 11.0166L32.5823 11.0609L31.4696 10.7734L32.1068 11.64ZM37.8972 9.2542L37.5958 9.35094L37.0966 7.83351L37.3981 7.73676L38.4457 8.39591L38.8975 7.25538L39.199 7.15865L39.698 8.67607L39.3494 8.78797L39.0062 7.74406L38.6031 8.82532L38.5304 8.84861L37.562 8.2354L37.8972 9.2542ZM45.9001 9.20257L44.2334 8.66757L44.7324 7.15013L46.3809 7.67932L46.2924 7.94835L45.0217 7.5404L44.913 7.87044L45.6538 8.10822L45.5676 8.37009L44.827 8.13231L44.7043 8.50539L45.9931 8.91917L45.9001 9.20257ZM50.2646 10.7646L49.9495 10.5384L50.8987 9.24765L52.0754 10.0924C52.2792 10.2387 52.3198 10.3953 52.1971 10.5621L51.9727 10.8672C51.8517 11.032 51.6891 11.0412 51.4852 10.8949L51.3062 10.7663L51.5679 11.7002L51.1108 11.3721L50.9231 10.4914L50.6236 10.2764L50.2646 10.7646ZM55.9381 14.9753L56.179 14.8023L55.5551 13.954L54.7399 14.5393L55.3636 15.3875L55.6417 15.188L55.8101 15.552L55.6556 15.6628C55.5343 15.75 55.4348 15.7848 55.3575 15.7673C55.2801 15.75 55.1935 15.676 55.0978 15.5457L54.5055 14.7402C54.4096 14.6099 54.3662 14.506 54.375 14.4282C54.3839 14.3503 54.448 14.2685 54.5675 14.1829L55.2561 13.6885C55.3776 13.6012 55.4767 13.5658 55.5533 13.5824C55.6299 13.5989 55.7161 13.6722 55.8118 13.8023L56.4043 14.6081C56.5 14.7382 56.5444 14.8423 56.5372 14.9204C56.5302 14.9986 56.466 15.0812 56.3444 15.1683L56.2178 15.2594L55.9381 14.9753ZM57.7471 21.0638L57.2056 19.4172L58.7413 18.9241L59.2769 20.5528L59.0047 20.6401L58.5917 19.3846L58.2577 19.4918L58.4984 20.2237L58.2334 20.3087L57.9927 19.577L57.6151 19.6982L58.0339 20.9716L57.7471 21.0638ZM58.8606 27.0099L58.3461 28.5741L56.8104 28.0811L56.933 27.708L58.182 28.1089L58.5736 26.9179L58.8606 27.0099ZM56.1331 33.9057L55.902 34.22L55.1588 32.5162L55.381 32.2142L57.2597 32.3737L56.9993 32.7278L56.5932 32.6833L55.9648 33.5377L56.1331 33.9057ZM52.479 38.3602L52.1886 38.5686L51.2395 37.2779L51.4588 37.1203L53.1981 37.182L52.5676 36.3246L52.8547 36.1183L53.8039 37.4092L53.5847 37.5665L51.8395 37.4906L52.479 38.3602ZM47.4119 40.8606L47.038 40.9806L47.4503 39.1706L47.8098 39.0553L49.2347 40.2754L48.8135 40.4107L48.5113 40.1388L47.4947 40.4652L47.4119 40.8606ZM42.4137 40.8612V40.5669H41.3524V41.5627H42.4137V41.2233L42.8108 41.3025V41.491C42.8108 41.6395 42.7809 41.7394 42.7211 41.791C42.6612 41.8426 42.55 41.8682 42.387 41.8682H41.3791C41.2162 41.8682 41.1055 41.8419 41.0471 41.789C40.9884 41.7362 40.9592 41.6369 40.9592 41.491V40.6499C40.9592 40.5016 40.9884 40.4015 41.0471 40.3501C41.1055 40.2985 41.2162 40.2727 41.3791 40.2727H42.387C42.55 40.2727 42.6612 40.2985 42.7211 40.3501C42.7809 40.4015 42.8108 40.5016 42.8108 40.6499V40.8046L42.4137 40.8612ZM36.3309 40.7382L35.9569 40.6182L36.4559 39.1008L36.8299 39.2207L36.3309 40.7382ZM30.9482 37.5726L30.6578 37.3642L31.607 36.0734L31.8263 36.2308L32.3045 37.8842L32.935 37.0268L33.2222 37.233L32.273 38.5239L32.0538 38.3663L31.5876 36.7028L30.9482 37.5726ZM26.9307 33.1614L26.7443 32.9081L28.0508 31.9703L28.237 32.2237L27.9264 33.4116L29.1638 33.4838L29.35 33.7371L28.0435 34.6749L27.8282 34.3821L28.727 33.7368L27.5616 33.6923L27.5167 33.6312L27.8076 32.5318L26.9307 33.1614ZM24.9403 27.2874L25.7499 27.0274C25.8951 26.9808 26.001 26.9773 26.0676 27.0167C26.1341 27.0562 26.1925 27.1525 26.2428 27.3056L26.6285 28.4785C26.6789 28.6316 26.6889 28.7434 26.6586 28.8141C26.6283 28.8846 26.5405 28.9432 26.3952 28.9898L25.5856 29.2496C25.4429 29.2955 25.3374 29.2984 25.2692 29.258C25.2011 29.2178 25.1423 29.1224 25.0927 28.9716L24.7069 27.7985C24.6566 27.6455 24.6473 27.5335 24.6787 27.4626C24.7103 27.3916 24.7974 27.3333 24.9403 27.2874ZM43.0955 12.0701C43.0955 12.6951 42.5827 13.2016 41.9502 13.2016C41.3177 13.2016 40.8049 12.6951 40.8049 12.0701C40.8049 11.4451 41.3177 10.9385 41.9502 10.9385C42.5827 10.9385 43.0955 11.4451 43.0955 12.0701ZM43.0955 37.35C43.0955 37.9749 42.5827 38.4816 41.9502 38.4816C41.3177 38.4816 40.8049 37.9749 40.8049 37.35C40.8049 36.725 41.3177 36.2185 41.9502 36.2185C42.5827 36.2185 43.0955 36.725 43.0955 37.35ZM29.5297 24.2783C29.5297 24.9032 29.0169 25.4099 28.3843 25.4099C27.7519 25.4099 27.2392 24.9032 27.2392 24.2783C27.2392 23.6534 27.7519 23.1467 28.3843 23.1467C29.0169 23.1467 29.5297 23.6534 29.5297 24.2783ZM55.4676 24.2942C55.4676 24.9191 54.9548 25.4258 54.3223 25.4258C53.6898 25.4258 53.177 24.9191 53.177 24.2942C53.177 23.6693 53.6898 23.1627 54.3223 23.1627C54.9548 23.1627 55.4676 23.6693 55.4676 24.2942ZM34.8903 34.6431C33.977 35.1082 33.292 35.4571 32.9627 35.4571C35.0599 33.828 38.8071 30.9218 42.0906 30.9218C45.5482 30.9218 48.1952 33.3319 50.2683 35.2195C50.3564 35.2997 50.4436 35.379 50.5297 35.4571C50.0801 35.4571 49.3302 35.0386 48.378 34.5071C46.7221 33.583 44.4545 32.3174 42.0906 32.3174C39.4569 32.3174 36.7171 33.7127 34.8903 34.6431ZM42.0906 17.3586C38.8071 17.3586 35.0599 14.4524 32.9627 12.8233C33.292 12.8233 33.9769 13.1721 34.8903 13.6374C36.7171 14.5676 39.4569 15.9631 42.0906 15.9631C44.4545 15.9631 46.7221 14.6975 48.378 13.7733C49.3302 13.2418 50.0801 12.8233 50.5297 12.8233C50.4442 12.901 50.3576 12.9798 50.2699 13.0595L50.2683 13.061C48.1952 14.9485 45.5482 17.3586 42.0906 17.3586ZM31.1859 17.4779C30.6757 16.7569 30.2933 16.2161 30.2933 15.8555C30.7073 16.5656 31.3039 17.268 31.9308 18.006C33.3319 19.6557 34.8836 21.4827 34.8836 23.9677C34.8836 27.1326 32.9466 29.6776 31.3665 31.7537C30.9753 32.2678 30.6059 32.753 30.2933 33.2119C30.2933 32.7195 30.7522 31.8982 31.3349 30.855C32.3481 29.0411 33.736 26.557 33.736 23.9677C33.736 21.0825 32.2059 18.9198 31.1859 17.4779ZM52.1919 16.8058C52.5619 16.3391 52.9081 15.9024 53.1993 15.5004C53.1993 15.8324 52.8348 16.4456 52.349 17.2632C51.3776 18.8983 49.9203 21.351 49.9203 24.0052C49.9203 26.3874 51.242 28.8126 52.2072 30.5837C52.7621 31.602 53.1993 32.4041 53.1993 32.8571C53.1103 32.7521 53.0191 32.6448 52.9259 32.5353C51.1301 30.4235 48.6088 27.4587 48.6088 24.0052C48.6088 21.3252 50.6156 18.7941 52.1919 16.8058ZM43.9277 29.6872L43.7036 29.798H43.4796L43.1436 29.5762L42.9195 29.1325L42.8075 28.7997V28.4668L42.6955 27.9122L42.5834 27.2464L42.4713 26.47L42.3593 26.1372L42.1354 25.6934H41.8553L41.5752 25.8042L41.3511 26.1372L41.127 26.3591L40.679 27.4685L40.0069 29.2435L39.8948 29.5762L39.7828 29.6872H39.3348L39.1107 29.5762L38.7746 29.3543L38.5505 29.2435L37.7663 28.4668V28.1339L37.9904 27.9122L38.1025 27.6902L38.7746 27.0247L39.3348 26.5809L40.4549 25.4715V25.2497L40.3428 25.0278L39.8948 24.8059L39.6707 24.9167L39.3348 25.0278L38.8867 25.2497L38.3264 25.4715L37.4304 25.8042L36.4221 26.1372H36.086L35.974 25.9153L35.8619 25.5825L35.638 24.695V24.2512L35.7499 23.8074L35.974 23.5856L36.1981 23.4746H36.6461L37.0942 23.5856L37.8784 23.6965L38.7746 23.8074L39.5589 23.9184H40.0069L40.231 23.6965L40.1189 23.4746L39.8948 23.2527L39.5589 23.0309L37.5424 22.0324L36.9822 21.6996L36.534 21.3668L36.3101 21.1449V20.923L36.8702 20.1464L37.8784 19.3699L38.4384 19.9246L38.7746 20.3683L40.679 22.9199H41.0151L41.2392 22.809L41.3511 22.5871V22.2543L41.2392 22.0324L40.5669 19.9246L40.4549 19.3699V18.9261L40.5669 18.7042L41.2392 18.4823H42.3593L42.8075 18.5933L42.9195 18.8152V20.0355L42.8075 20.3683L42.4713 22.1434V22.3652L42.5834 22.698L42.8075 22.809H43.0314L43.2555 22.698L45.832 19.9246H46.2802L46.7284 20.3683L46.8402 20.5902L47.0643 20.8121L47.1764 21.1449L47.4005 21.5887L47.2884 21.8105L47.0643 21.9215L46.8402 22.1434L46.5043 22.3652L43.9277 23.8074L43.7036 24.0293L43.5916 24.2512L43.7036 24.3621L43.9277 24.4729L47.6245 24.584L47.9605 24.695L48.0726 24.9167V25.2497L47.8485 26.1372L47.6245 26.5809L47.4005 26.9138L47.0643 27.1355L43.9277 25.3605L43.7036 25.2497L43.4796 25.3605L43.3676 25.4715V25.9153L45.272 28.4668L45.384 28.7997L44.9358 29.2435L44.5999 29.4652L43.9277 29.6872Z" fill="#26205C"/>
</svg>
