<svg width="99" height="25" viewBox="0 0 99 25" fill="none" xmlns="http://www.w3.org/2000/svg">
<path d="M70.1752 0H66.4474L70.1752 2.19298H71.9298L70.1752 0Z" fill="#26205C"/>
<path d="M17.5439 24.7763H10.9008L4.89151 17.9824V24.7763H0V3.07021H4.89151V10.307L10.9008 3.07021H17.5439L8.11402 13.9232L17.5439 24.7763Z" fill="#26205C"/>
<path d="M97.7288 24.0425C98.3663 23.4042 98.6847 22.6423 98.6847 21.7568V13.7262C98.6847 12.8408 98.3663 12.079 97.7288 11.4405C97.0922 10.8023 96.3322 10.4831 95.4497 10.4831H84.8197V7.70327H98.6847V3.07021H83.1254C82.2416 3.07021 81.4816 3.38937 80.8452 4.0277C80.2081 4.66603 79.8902 5.42792 79.8902 6.31334V11.873C79.8902 12.7585 80.2081 13.5203 80.8452 14.1586C81.4816 14.797 82.2416 15.1161 83.1254 15.1161H93.7547V20.3669H79.8902V25H95.4497C96.3322 25 97.0922 24.6808 97.7288 24.0425Z" fill="#26205C"/>
<path d="M59.3807 24.8456H54.7592V14.0351L49.5215 24.8456H45.8243L40.5865 14.0351V24.8456H35.965V3.22465H40.5865L47.6113 17.896L54.7592 3.22465H59.3807V24.8456Z" fill="#26205C"/>
<path d="M78.1846 24.8456H64.32C63.4779 24.8456 62.7487 24.547 62.1325 23.9498C61.5369 23.3321 61.239 22.6011 61.239 21.7568V6.31335C61.239 5.46911 61.5369 4.74841 62.1325 4.15126C62.7487 3.53352 63.4779 3.22465 64.32 3.22465H78.1846V7.54885H65.8605V10.6375H78.1846V14.9617H65.8605V20.5213H78.1846V24.8456Z" fill="#26205C"/>
<path d="M15.8151 8.58947L16.2834 8.9298L16.723 8.3248L16.2546 7.98448L15.8151 8.58947Z" fill="#26205C"/>
<path d="M29.9232 6.06138C29.9525 6.02116 29.9393 5.98086 29.8837 5.94048L29.4668 5.63756L29.316 5.84513L29.7329 6.14805C29.7885 6.18844 29.8309 6.18853 29.8601 6.14831L29.9232 6.06138Z" fill="#26205C"/>
<path d="M32.0204 18.926L32.2102 19.3214L32.4603 18.9772L32.0204 18.926Z" fill="#26205C"/>
<path d="M27.543 22.9044L27.4642 23.3359L27.8687 23.2044L27.543 22.9044Z" fill="#26205C"/>
<path d="M15.0494 15.9135L14.4988 16.0924L14.7299 16.8037L15.2804 16.6248L15.0494 15.9135Z" fill="#26205C"/>
<path d="M23.6213 14.035C23.6213 14.3985 23.9158 14.693 24.2792 14.693C24.6424 14.693 24.937 14.3985 24.937 14.035C24.937 13.6717 24.6424 13.3772 24.2792 13.3772C23.9158 13.3772 23.6213 13.6717 23.6213 14.035Z" fill="#26205C"/>
<path fill-rule="evenodd" clip-rule="evenodd" d="M13.5961 14.1447C13.5961 20.0188 18.3586 24.7806 24.2336 24.7806C30.1085 24.7806 34.8711 20.0188 34.8711 14.1447C34.8711 8.27058 30.1085 3.50873 24.2336 3.50873C18.3586 3.50873 13.5961 8.27058 13.5961 14.1447ZM14.9273 11.1313L14.7629 11.0784L14.5725 11.6582L15.1289 11.8371L15.3193 11.2573L15.1296 11.1963L15.245 10.9936L15.3504 11.0275C15.4334 11.0542 15.4839 11.0885 15.5019 11.1304C15.5199 11.1723 15.5144 11.2378 15.4852 11.3267L15.3044 11.8775C15.2752 11.9664 15.2405 12.0221 15.2005 12.0446C15.1605 12.0671 15.0998 12.0653 15.0183 12.039L14.5483 11.8879C14.4654 11.8613 14.4148 11.8274 14.3965 11.7861C14.3782 11.7448 14.3836 11.6797 14.4128 11.5907L14.5937 11.0401C14.6229 10.9511 14.6573 10.895 14.6968 10.8715C14.7363 10.8481 14.7975 10.8497 14.8805 10.8764L14.9669 10.9042L14.9273 11.1313ZM16.1436 9.08797L15.7438 8.80055C15.6721 8.74897 15.6343 8.70097 15.6303 8.65664C15.6264 8.61222 15.6523 8.55214 15.7078 8.47647L16.1338 7.89632C16.1893 7.82065 16.2391 7.77777 16.2829 7.76776C16.3269 7.75775 16.3846 7.77852 16.4564 7.83006L16.8562 8.11749C16.9267 8.16823 16.964 8.21628 16.9681 8.26165C16.9722 8.30707 16.9469 8.36706 16.8922 8.44156L16.4662 9.02172C16.4106 9.09739 16.3606 9.14005 16.3161 9.14964C16.2716 9.15922 16.2142 9.13864 16.1436 9.08797ZM18.6379 6.76743L18.4892 6.87442L17.9382 6.12396L18.0869 6.01698L18.785 6.19547L18.8274 5.48462L18.9763 5.37763L19.5272 6.1281L19.3551 6.25185L18.976 5.73557L18.9499 6.40499L18.9139 6.43076L18.268 6.26359L18.6379 6.76743ZM21.9993 5.38035L21.8243 5.43659L21.5345 4.55437L21.7095 4.49812L22.3177 4.88134L22.5799 4.21824L22.7549 4.162L23.0446 5.04423L22.8423 5.10928L22.643 4.50236L22.409 5.131L22.3668 5.14454L21.8047 4.78803L21.9993 5.38035ZM26.6449 5.35033L25.6774 5.03928L25.9671 4.15705L26.924 4.46472L26.8727 4.62113L26.135 4.38395L26.0719 4.57584L26.5019 4.71408L26.4519 4.86633L26.022 4.72808L25.9507 4.94499L26.6989 5.18557L26.6449 5.35033ZM29.1785 6.25849L28.9956 6.127L29.5466 5.37654L30.2296 5.86765C30.348 5.95273 30.3716 6.04376 30.3003 6.14075L30.1701 6.31815C30.0998 6.41396 30.0054 6.41933 29.8871 6.33425L29.7831 6.2595L29.9351 6.80244L29.6697 6.61167L29.5607 6.09965L29.3869 5.97462L29.1785 6.25849ZM32.472 8.70655L32.6118 8.60597L32.2496 8.11279L31.7764 8.45306L32.1385 8.94622L32.2999 8.83022L32.3976 9.04189L32.308 9.1063C32.2376 9.15697 32.1798 9.17722 32.1349 9.16705C32.09 9.15697 32.0397 9.11397 31.9841 9.03822L31.6403 8.56989C31.5846 8.49414 31.5595 8.43372 31.5646 8.38847C31.5697 8.34322 31.607 8.29565 31.6763 8.24585L32.0761 7.95842C32.1466 7.90768 32.2041 7.88712 32.2486 7.89672C32.2931 7.90633 32.3431 7.94894 32.3986 8.02462L32.7426 8.49306C32.7981 8.56872 32.8239 8.62922 32.8197 8.67464C32.8156 8.72014 32.7784 8.76814 32.7078 8.8188L32.6343 8.87172L32.472 8.70655ZM33.5221 12.2464L33.2077 11.289L34.0992 11.0024L34.4101 11.9493L34.2521 12L34.0124 11.2701L33.8185 11.3325L33.9582 11.758L33.8044 11.8074L33.6646 11.382L33.4455 11.4525L33.6886 12.1928L33.5221 12.2464ZM34.1685 15.7034L33.8698 16.6129L32.9783 16.3262L33.0495 16.1093L33.7746 16.3424L34.0019 15.6499L34.1685 15.7034ZM32.5851 19.7126L32.451 19.8954L32.0196 18.9048L32.1486 18.7292L33.2391 18.8219L33.088 19.0278L32.8522 19.0019L32.4875 19.4987L32.5851 19.7126ZM30.464 22.3024L30.2954 22.4236L29.7444 21.6732L29.8717 21.5816L30.8814 21.6174L30.5154 21.1189L30.6821 20.999L31.2331 21.7495L31.1058 21.841L30.0927 21.7968L30.464 22.3024ZM27.5225 23.7562L27.3055 23.8259L27.5448 22.7736L27.7535 22.7066L28.5807 23.4159L28.3362 23.4946L28.1607 23.3365L27.5706 23.5263L27.5225 23.7562ZM24.6211 23.7565V23.5854H24.005V24.1643H24.6211V23.967L24.8516 24.0131V24.1227C24.8516 24.209 24.8343 24.2671 24.7995 24.2971C24.7648 24.3271 24.7002 24.342 24.6056 24.342H24.0205C23.9259 24.342 23.8617 24.3267 23.8278 24.2959C23.7937 24.2653 23.7768 24.2075 23.7768 24.1227V23.6337C23.7768 23.5474 23.7937 23.4893 23.8278 23.4593C23.8617 23.4293 23.9259 23.4143 24.0205 23.4143H24.6056C24.7002 23.4143 24.7648 23.4293 24.7995 23.4593C24.8343 23.4893 24.8516 23.5474 24.8516 23.6337V23.7236L24.6211 23.7565ZM21.09 23.685L20.8729 23.6153L21.1626 22.733L21.3797 22.8028L21.09 23.685ZM17.9654 21.8445L17.7968 21.7233L18.3478 20.9729L18.4751 21.0644L18.7527 22.0257L19.1187 21.5272L19.2854 21.6471L18.7344 22.3976L18.6072 22.306L18.3365 21.3388L17.9654 21.8445ZM15.6332 19.2799L15.525 19.1326L16.2834 18.5874L16.3915 18.7347L16.2112 19.4254L16.9295 19.4674L17.0376 19.6146L16.2792 20.1599L16.1542 19.9896L16.6759 19.6144L15.9994 19.5885L15.9734 19.553L16.1423 18.9139L15.6332 19.2799ZM14.4778 15.8648L14.9478 15.7136C15.032 15.6865 15.0935 15.6844 15.1322 15.7074C15.1708 15.7304 15.2047 15.7864 15.2339 15.8754L15.4578 16.5573C15.487 16.6463 15.4929 16.7113 15.4753 16.7524C15.4577 16.7934 15.4067 16.8274 15.3224 16.8545L14.8524 17.0056C14.7695 17.0323 14.7083 17.0339 14.6687 17.0104C14.6292 16.9871 14.595 16.9316 14.5663 16.8439L14.3423 16.1619C14.3131 16.0729 14.3077 16.0079 14.326 15.9666C14.3443 15.9254 14.3949 15.8914 14.4778 15.8648ZM25.0168 7.01749C25.0168 7.38087 24.7192 7.67536 24.352 7.67536C23.9848 7.67536 23.6872 7.38087 23.6872 7.01749C23.6872 6.65415 23.9848 6.3596 24.352 6.3596C24.7192 6.3596 25.0168 6.65415 25.0168 7.01749ZM25.0168 21.7151C25.0168 22.0784 24.7192 22.373 24.352 22.373C23.9848 22.373 23.6872 22.0784 23.6872 21.7151C23.6872 21.3518 23.9848 21.0573 24.352 21.0573C24.7192 21.0573 25.0168 21.3518 25.0168 21.7151ZM17.1419 14.1153C17.1419 14.4786 16.8443 14.7732 16.477 14.7732C16.1099 14.7732 15.8123 14.4786 15.8123 14.1153C15.8123 13.752 16.1099 13.4574 16.477 13.4574C16.8443 13.4574 17.1419 13.752 17.1419 14.1153ZM32.1988 14.1245C32.1988 14.4879 31.9011 14.7825 31.534 14.7825C31.1668 14.7825 30.8691 14.4879 30.8691 14.1245C30.8691 13.7612 31.1668 13.4667 31.534 13.4667C31.9011 13.4667 32.1988 13.7612 32.1988 14.1245ZM20.2538 20.1413C19.7236 20.4118 19.3259 20.6146 19.1348 20.6146C20.3522 19.6674 22.5274 17.9778 24.4335 17.9778C26.4407 17.9778 27.9772 19.379 29.1807 20.4764C29.2318 20.5231 29.2824 20.5692 29.3324 20.6146C29.0714 20.6146 28.6361 20.3713 28.0833 20.0623C27.1221 19.525 25.8057 18.7892 24.4335 18.7892C22.9047 18.7892 21.3142 19.6004 20.2538 20.1413ZM24.4335 10.0922C22.5274 10.0922 20.3522 8.40256 19.1348 7.45539C19.3259 7.45539 19.7235 7.65822 20.2538 7.92872C21.3142 8.46955 22.9047 9.28089 24.4335 9.28089C25.8057 9.28089 27.1221 8.54506 28.0833 8.00775C28.6361 7.69874 29.0714 7.45539 29.3324 7.45539C29.2827 7.50056 29.2325 7.54639 29.1816 7.59276L29.1807 7.59363C27.9772 8.69097 26.4407 10.0922 24.4335 10.0922ZM18.1034 10.1615C17.8072 9.74238 17.5852 9.42797 17.5852 9.2183C17.8255 9.63113 18.1719 10.0395 18.5358 10.4686C19.3491 11.4277 20.2498 12.49 20.2498 13.9347C20.2498 15.7748 19.1254 17.2544 18.2082 18.4614C17.9811 18.7604 17.7667 19.0424 17.5852 19.3093C17.5852 19.0229 17.8516 18.5454 18.1899 17.9389C18.778 16.8844 19.5837 15.4401 19.5837 13.9347C19.5837 12.2573 18.6954 10.9999 18.1034 10.1615ZM30.2973 9.7708C30.5121 9.49947 30.7131 9.24555 30.8821 9.01189C30.8821 9.20489 30.6705 9.56139 30.3885 10.0367C29.8246 10.9874 28.9787 12.4134 28.9787 13.9565C28.9787 15.3415 29.7459 16.7515 30.3062 17.7812C30.6283 18.3733 30.8821 18.8396 30.8821 19.1029C30.8304 19.0419 30.7775 18.9795 30.7234 18.9159C29.6809 17.6881 28.2173 15.9644 28.2173 13.9565C28.2173 12.3984 29.3822 10.9268 30.2973 9.7708ZM25.4999 17.26L25.3698 17.3244H25.2398L25.0448 17.1954L24.9147 16.9375L24.8497 16.744V16.5504L24.7847 16.228L24.7196 15.8409L24.6545 15.3895L24.5895 15.196L24.4595 14.938H24.2969L24.1343 15.0025L24.0043 15.196L23.8742 15.325L23.6141 15.97L23.2239 17.002L23.1588 17.1954L23.0938 17.26H22.8338L22.7037 17.1954L22.5086 17.0664L22.3785 17.002L21.9233 16.5504V16.3569L22.0533 16.228L22.1184 16.0989L22.5086 15.712L22.8338 15.454L23.484 14.809V14.68L23.4189 14.551L23.1588 14.422L23.0288 14.4865L22.8338 14.551L22.5737 14.68L22.2484 14.809L21.7283 15.0025L21.1429 15.196H20.9478L20.8828 15.067L20.8178 14.8735L20.6878 14.3575V14.0995L20.7528 13.8415L20.8828 13.7125L21.0129 13.648H21.273L21.5331 13.7125L21.9883 13.777L22.5086 13.8415L22.9638 13.906H23.2239L23.354 13.777L23.2889 13.648L23.1588 13.519L22.9638 13.39L21.7933 12.8095L21.4681 12.616L21.2079 12.4225L21.0779 12.2935V12.1645L21.4031 11.713L21.9883 11.2615L22.3134 11.584L22.5086 11.842L23.6141 13.3255H23.8092L23.9393 13.261L24.0043 13.132V12.9385L23.9393 12.8095L23.549 11.584L23.484 11.2615V11.0035L23.549 10.8745L23.9393 10.7455H24.5895L24.8497 10.81L24.9147 10.939V11.6485L24.8497 11.842L24.6545 12.874V13.003L24.7196 13.1965L24.8497 13.261H24.9797L25.1098 13.1965L26.6054 11.584H26.8656L27.1257 11.842L27.1907 11.971L27.3207 12.1L27.3858 12.2935L27.5159 12.5515L27.4508 12.6805L27.3207 12.745L27.1907 12.874L26.9957 13.003L25.4999 13.8415L25.3698 13.9705L25.3048 14.0995L25.3698 14.164L25.4999 14.2285L27.6459 14.293L27.841 14.3575L27.9061 14.4865V14.68L27.776 15.196L27.6459 15.454L27.5159 15.6475L27.3207 15.7764L25.4999 14.7445L25.3698 14.68L25.2398 14.7445L25.1748 14.809V15.067L26.2803 16.5504L26.3453 16.744L26.0852 17.002L25.8902 17.1309L25.4999 17.26Z" fill="#26205C"/>
</svg>
